<?xml version="1.0" encoding="utf-8"?>
<!-- Generator: Adobe Illustrator 23.0.1, SVG Export Plug-In . SVG Version: 6.00 Build 0)  -->
<svg version="1.1" id="Layer_1" xmlns="http://www.w3.org/2000/svg" xmlns:xlink="http://www.w3.org/1999/xlink" x="0px" y="0px"
	 viewBox="0 0 76 76" style="enable-background:new 0 0 76 76;" xml:space="preserve">
<g>
	<g>
		<path d="M2,26c-1.1,0-2-0.9-2-2V2c0-1.1,0.9-2,2-2h22c1.1,0,2,0.9,2,2s-0.9,2-2,2H4v20C4,25.1,3.1,26,2,26z"/>
	</g>
	<g>
		<path d="M24,76H2c-1.1,0-2-0.9-2-2V52c0-1.1,0.9-2,2-2s2,0.9,2,2v20h20c1.1,0,2,0.9,2,2S25.1,76,24,76z"/>
	</g>
	<g>
		<path d="M74,76H52c-1.1,0-2-0.9-2-2s0.9-2,2-2h20V52c0-1.1,0.9-2,2-2s2,0.9,2,2v22C76,75.1,75.1,76,74,76z"/>
	</g>
	<g>
		<path d="M74,26c-1.1,0-2-0.9-2-2V4H52c-1.1,0-2-0.9-2-2s0.9-2,2-2h22c1.1,0,2,0.9,2,2v22C76,25.1,75.1,26,74,26z"/>
	</g>
</g>
<g>
	<path d="M24,26c-0.5,0-1-0.2-1.4-0.6l-22-22c-0.8-0.8-0.8-2,0-2.8c0.8-0.8,2-0.8,2.8,0l22,22c0.8,0.8,0.8,2,0,2.8
		C25,25.8,24.5,26,24,26z"/>
</g>
<g>
	<path d="M74,76c-0.5,0-1-0.2-1.4-0.6l-22-22c-0.8-0.8-0.8-2,0-2.8s2-0.8,2.8,0l22,22c0.8,0.8,0.8,2,0,2.8C75,75.8,74.5,76,74,76z"
		/>
</g>
<g>
	<path d="M52,26c-0.5,0-1-0.2-1.4-0.6c-0.8-0.8-0.8-2,0-2.8l22-22c0.8-0.8,2-0.8,2.8,0c0.8,0.8,0.8,2,0,2.8l-22,22
		C53,25.8,52.5,26,52,26z"/>
</g>
<g>
	<path d="M2,76c-0.5,0-1-0.2-1.4-0.6c-0.8-0.8-0.8-2,0-2.8l22-22c0.8-0.8,2-0.8,2.8,0c0.8,0.8,0.8,2,0,2.8l-22,22
		C3,75.8,2.5,76,2,76z"/>
</g>
</svg>
