<?xml version="1.0" encoding="utf-8"?>
<!-- Generator: Adobe Illustrator 23.0.1, SVG Export Plug-In . SVG Version: 6.00 Build 0)  -->
<svg version="1.1"
	 id="Layer_1" xmlns:cc="http://creativecommons.org/ns#" xmlns:dc="http://purl.org/dc/elements/1.1/" xmlns:rdf="http://www.w3.org/1999/02/22-rdf-syntax-ns#"
	 xmlns="http://www.w3.org/2000/svg" xmlns:xlink="http://www.w3.org/1999/xlink" x="0px" y="0px" viewBox="0 0 26 26"
	 style="enable-background:new 0 0 26 26;" xml:space="preserve">
<style type="text/css">
	.st0{fill:none;}
</style>
<rect x="-3" y="-3" class="st0" width="32" height="32"/>
<path image-rendering="auto" shape-rendering="auto" color-rendering="auto" d="M25,0c0,0-0.1,0-0.1,0H17c-0.6,0-1,0.4-1,1
	s0.4,1,1,1c0,0,0,0,0,0h5.6L10.3,14.3c-0.4,0.4-0.4,1,0,1.4c0.4,0.4,1,0.4,1.4,0c0,0,0,0,0,0L24,3.4V9c0,0.6,0.4,1,1,1
	c0.6,0,1-0.4,1-1c0,0,0,0,0,0V1.1c0.1-0.5-0.3-1.1-0.9-1.1C25.1,0,25,0,25,0L25,0z"/>
<path image-rendering="auto" shape-rendering="auto" color-rendering="auto" d="M11,4C8.5,4,6.6,4,5.1,4.2C3.6,4.3,2.4,4.7,1.5,5.6
	S0.3,7.6,0.2,9.1C0,10.6,0,12.5,0,15c0,2.5,0,4.4,0.2,5.9s0.5,2.7,1.4,3.6c0.9,0.9,2.1,1.2,3.6,1.4S8.5,26,11,26
	c2.5,0,4.4,0,5.9-0.2c1.5-0.2,2.7-0.5,3.6-1.4s1.2-2.1,1.4-3.6S22,17.5,22,15c0-0.6-0.4-1-1-1s-1,0.4-1,1c0,0,0,0,0,0
	c0,2.5,0,4.3-0.2,5.6c-0.1,1.3-0.4,2-0.8,2.4c-0.4,0.4-1.1,0.7-2.4,0.8S13.5,24,11,24c-2.5,0-4.3,0-5.6-0.2C4,23.7,3.4,23.4,3,23
	S2.3,22,2.2,20.7S2,17.5,2,15c0-2.5,0-4.3,0.2-5.7S2.6,7.4,3,7S4,6.3,5.3,6.2C6.6,6,8.5,6,11,6c0.6,0,1-0.4,1-1C12,4.5,11.6,4,11,4
	C11,4,11,4,11,4L11,4z"/>
</svg>
