<?xml version="1.0" encoding="utf-8"?>
<!-- Generator: Adobe Illustrator 23.0.1, SVG Export Plug-In . SVG Version: 6.00 Build 0)  -->
<svg version="1.1" id="Layer_1" xmlns="http://www.w3.org/2000/svg" xmlns:xlink="http://www.w3.org/1999/xlink" x="0px" y="0px"
	 viewBox="0 0 77 36.4" style="enable-background:new 0 0 77 36.4;" xml:space="preserve">
<g>
	<path d="M71.9,0H5.1C2.3,0,0,2.3,0,5.1v26.2c0,2.8,2.3,5.1,5.1,5.1h25.6c0.8,0,1.5-0.5,1.8-1.2c1.1-2.4,3.5-3.9,6-3.9s5,1.5,6,3.9
		c0.3,0.7,1,1.2,1.8,1.2h25.6c2.8,0,5.1-2.3,5.1-5.1V5.1C77,2.3,74.7,0,71.9,0z M75,31.3c0,1.7-1.4,3.1-3.1,3.1l-25.6,0
		c-1.4-3.1-4.5-5-7.9-5s-6.5,2-7.9,5.1H5.1C3.4,34.4,2,33,2,31.3V5.1C2,3.4,3.4,2,5.1,2h66.9C73.6,2,75,3.4,75,5.1V31.3z"/>
	<path d="M58.6,8.6c-4,0-7.6,2.5-9,6.3c-0.4,1-0.6,2.1-0.6,3.2c0,5.3,4.3,9.5,9.5,9.5s9.5-4.3,9.5-9.5c0-1.1-0.2-2.2-0.6-3.2
		C66.2,11.2,62.6,8.6,58.6,8.6z M58.6,25.7c-4.2,0-7.5-3.4-7.5-7.5c0-0.9,0.2-1.7,0.5-2.6c1.1-3,3.9-5,7.1-5s6,2,7.1,5
		c0.3,0.8,0.4,1.7,0.4,2.5C66.1,22.3,62.7,25.7,58.6,25.7z"/>
	<path d="M18.4,8.6c-4,0-7.6,2.5-9,6.3c-0.4,1-0.6,2.1-0.6,3.2c0,5.3,4.3,9.5,9.5,9.5s9.5-4.3,9.5-9.5c0-1.1-0.2-2.2-0.6-3.2
		C26,11.2,22.4,8.6,18.4,8.6z M18.4,25.7c-4.2,0-7.5-3.4-7.5-7.5c0-0.9,0.2-1.7,0.5-2.6c1.1-3,3.9-5,7.1-5s6,2,7.1,5
		c0.3,0.8,0.4,1.7,0.4,2.5C26,22.3,22.6,25.7,18.4,25.7z"/>
</g>
</svg>
