<?xml version="1.0" encoding="utf-8"?>
<!-- Generator: Adobe Illustrator 23.0.1, SVG Export Plug-In . SVG Version: 6.00 Build 0)  -->
<svg version="1.1" id="Layer_1" xmlns="http://www.w3.org/2000/svg" xmlns:xlink="http://www.w3.org/1999/xlink" x="0px" y="0px"
	 viewBox="0 0 90 52" style="enable-background:new 0 0 90 52;" xml:space="preserve">
<path d="M88,28H2c-1.1,0-2-0.9-2-2s0.9-2,2-2h86c1.1,0,2,0.9,2,2S89.1,28,88,28z M90,2c0-1.1-0.9-2-2-2H2C0.9,0,0,0.9,0,2s0.9,2,2,2
	h86C89.1,4,90,3.1,90,2z M90,50c0-1.1-0.9-2-2-2H2c-1.1,0-2,0.9-2,2s0.9,2,2,2h86C89.1,52,90,51.1,90,50z"/>
</svg>
